<?xml version="1.0" encoding="utf-8"?>
<!-- Generator: Adobe Illustrator 26.0.1, SVG Export Plug-In . SVG Version: 6.00 Build 0)  -->
<svg version="1.1" id="Layer_1" xmlns="http://www.w3.org/2000/svg" xmlns:xlink="http://www.w3.org/1999/xlink" x="0px" y="0px"
	 viewBox="0 0 207.96 240.21" style="enable-background:new 0 0 207.96 240.21;" xml:space="preserve">
<style type="text/css">
	.st0{fill:#AAF16A;}
	.st1{fill:#41AFC2;}
	.st2{fill:#9FD3DC;}
	.st3{fill:#9FEB65;}
	.st4{fill:#77DCE2;}
	.st5{fill:#69DEE4;}
	.st6{fill:#B2F56B;}
	.st7{fill:#BDFB76;}
	.st8{fill:#94E55F;}
	.st9{fill:#8CE05C;}
	.st10{fill:#95D5DD;}
	.st11{fill:#81DAE1;}
	.st12{fill:#21A3BA;}
	.st13{fill:#8BCAD5;}
	.st14{fill:#69E16C;}
	.st15{fill:#31A9BE;}
	.st16{fill:#93CDD8;}
	.st17{fill:#56DB69;}
	.st18{fill:#B7F96E;}
	.st19{fill:#2DCE69;}
	.st20{fill:#89D7DF;}
	.st21{fill:#92ED6E;}
	.st22{fill:#5FBACA;}
	.st23{fill:#51B5C6;}
	.st24{fill:#29A5BC;}
	.st25{fill:#A2F374;}
	.st26{fill:#6EBFCD;}
</style>
<path class="st0" d="M196.9,60.35c0.95,2.63,2.45,5.2,2.75,7.91c1.96,18-3.35,33.88-14.34,48.09c-1.29,1.67-1.82,3.93-2.69,5.92
	c-0.69-0.44-1.74-1.43-2.03-1.24c-3.6,2.32-7.41,4.47-10.54,7.34c-5.31,4.88-11.2,8.14-18.4,8.92c-1.74-2.84-1.73-5.7,0.06-8.49
	c4.2-6.52,8.49-12.98,12.64-19.54c1.87-2.95,4.45-5.92,4.94-9.16c0.68-4.45,3.21-6.72,6.19-9.41c2.34-2.11,3.76-5.25,5.55-7.96
	c1.76-2.66,3.33-5.46,5.25-8c1.42-1.89,3.48-3.31,4.86-5.23C193.23,66.59,194.99,63.42,196.9,60.35z"/>
<path class="st1" d="M57.63,188.21c9.88,6.24,20.07,7.97,31.2,1.65c0,5.05,0,9.61,0,14.16c-5.02-0.39-10.04-0.72-15.05-1.17
	c-12.91-1.17-25.86-2.06-38.72-3.71c-9.41-1.21-9.76-1.34-10.19,8.22c-0.03,0.56-0.13,1.12-0.19,1.68
	c-0.66-0.54-1.32-1.08-1.99-1.62c-0.35-0.39-0.7-0.78-1.04-1.17c-3.01-6.09-6.01-12.19-9.02-18.28c-0.25-0.68-0.5-1.37-0.75-2.05
	c-0.18-0.74-0.35-1.48-0.53-2.22c0.06-0.77,0.11-1.53,0.17-2.3c4.74-3.68,9.09-5.13,15.73-2.9c6.9,2.32,14.92,1.33,22.45,1.79
	c0.29,0.07,0.57,0.11,0.87,0.13c0,0,0.28,0.41,0.28,0.41c0.1,0.21,0.24,0.39,0.43,0.53c0.62,0.94,1.23,1.87,1.85,2.81
	c0.14,0.29,0.36,0.51,0.65,0.65c0.94,0.84,1.88,1.68,2.81,2.52C56.94,187.63,57.28,187.92,57.63,188.21z"/>
<path class="st2" d="M60.07,97.95c8.63,1.14,17.29,2.11,25.86,3.58c1.34,0.23,3.07,2.67,3.24,4.23c0.4,3.68-0.05,7.46-0.14,11.19
	c-3.32,0.28-6.71,1.15-9.95,0.75c-15.66-1.94-31.25-4.35-46.91-6.27c-3.17-0.39-7.39-1.11-8.28,4.03
	c-7.09-7.6-11.68-16.45-13.38-26.75c1.87,2.89,3.75,5.78,4.87,7.51c8.25-0.28,15.83-0.3,23.37-0.88c5.45-0.42,9.68,1.55,14.01,4.51
	c2.4,1.64,5.71,1.97,8.6,2.89c0.22-0.54,0.45-1.08,0.67-1.61C61.38,100.08,60.72,99.01,60.07,97.95z"/>
<path class="st3" d="M106.06,224.36c-0.03-4.13-0.05-8.26-0.08-12.39c7.81-2.99,15.65-5.89,23.41-9.01
	c3.12-1.25,6.09-4.33,9.05-4.23c6.81,0.22,10.67-4.11,15.37-7.51c2.48-1.79,5.44-3.05,8.35-4.1c4.56-1.66,9.33-2.72,13.87-4.43
	c7.7-2.9,15.27-6.12,22.9-9.2c-0.18,2.24-0.37,4.48-0.55,6.72c-0.5,0.74-1.01,1.49-1.52,2.23c-1.15,3.71-2.29,7.43-3.44,11.14
	c-1.07-2.04-2.14-4.09-2.77-5.3c-6.55,3.44-12.7,7.14-19.22,9.98c-8.23,3.58-17.1,5.8-25.11,9.79
	C133.29,214.53,120.26,220.85,106.06,224.36z"/>
<path class="st4" d="M55.39,54.3c-1.04,0.99-2.08,1.98-3.12,2.97c-1.68-2.7-2.94-7.26-5.13-7.76c-9.37-2.17-18.91-5.17-28.74-1.78
	c-0.68,0.24-1.84-0.88-2.77-1.37c0.12-0.6,0.24-1.21,0.36-1.81c0.37-0.75,0.75-1.51,1.12-2.26c2.63-6.15,5.79-11.86,12.22-14.89
	c-1.23,2.07-2.47,4.15-3.71,6.22c0.4,0.41,0.81,0.82,1.21,1.23c1.57-1.43,3.3-2.74,4.57-4.4c0.24-0.32-1.34-2.02-2.07-3.09
	c2.34-2.14,4.68-4.28,7.02-6.43c-0.91,2.41-1.81,4.82-2.46,6.53c2.57,1.71,4.99,3.31,7.41,4.92c12.33-0.5,24.84,0.24,37.35,1.02
	c0.5,0.03,0.94,0.59,1.46,0.73c2.94,0.84,5.88,1.64,8.83,2.45c0,4.61,0,9.23,0,12.91c-6.62-0.58-13.26-1.53-19.91-1.59
	c-3.19-0.03-6.4,1.62-9.61,2.5C58.07,51.7,56.73,53,55.39,54.3z"/>
<path class="st5" d="M88.94,36.59c-2.94-0.81-5.89-1.61-8.83-2.45c-0.52-0.15-0.96-0.7-1.46-0.73c-12.51-0.78-25.02-1.52-37.35-1.02
	c-2.42-1.61-4.84-3.21-7.41-4.92c0.64-1.71,1.55-4.12,2.46-6.53c7.95-7.41,17.92-10.54,28.21-12.13c6.31-0.98,12.92-0.04,19.39,0.03
	c1.28,0.26,2.57,0.52,3.85,0.78c0.4,2.62,0.79,5.24,1.19,7.85c-0.08,0.1-0.26,0.22-0.24,0.3c0.04,0.24,0.17,0.46,0.26,0.68
	C88.98,24.51,88.96,30.55,88.94,36.59z"/>
<path class="st0" d="M198.93,173.48c-7.63,3.08-15.21,6.3-22.9,9.2c-4.53,1.71-9.31,2.77-13.87,4.43c-2.91,1.06-5.87,2.31-8.35,4.1
	c-4.71,3.4-8.56,7.73-15.37,7.51c-2.96-0.1-5.93,2.98-9.05,4.23c-7.76,3.12-15.6,6.02-23.41,9.01c-0.03-5.29-0.06-10.57-0.09-15.86
	c1.98-0.76,3.91-1.96,5.96-2.22c8.61-1.08,17.26-1.88,25.9-2.79c0.93-0.23,1.86-0.45,2.78-0.68c0.28-0.06,0.52-0.2,0.71-0.41
	c0.93-0.22,1.86-0.43,2.78-0.65c4.62-0.09,7.54-2.36,8.69-6.85c0.43-0.38,0.85-0.76,1.28-1.14c1.85-2.26,3.7-4.52,5.55-6.78
	c3.5-1.36,6.9-3.21,10.53-3.98c10.34-2.2,19.24-7.25,27.88-12.98c0.4,1.13,0.81,2.26,1.21,3.39
	C199.09,165.18,199.01,169.33,198.93,173.48z"/>
<path class="st6" d="M196.9,60.35c-1.91,3.07-3.67,6.24-5.78,9.16c-1.38,1.92-3.44,3.34-4.86,5.23c-1.91,2.54-3.49,5.34-5.25,8
	c-1.79,2.71-3.21,5.85-5.55,7.96c-2.98,2.69-5.51,4.96-6.19,9.41c-0.49,3.23-3.07,6.2-4.94,9.16c-4.14,6.56-8.44,13.02-12.64,19.54
	c-1.79,2.79-1.79,5.65-0.06,8.49c-3.77,1.13-7.54,2.26-11.3,3.39c-2.27-0.38-4.54-0.76-6.8-1.14c-0.29-5.62,2.65-9.4,6.43-13.29
	c3.6-3.7,5.42-9.17,9.12-12.71c6.65-6.37,9.33-14.62,12.73-22.63c0.38-0.75,0.75-1.51,1.13-2.26c2.18-1.54,4.94-2.66,6.43-4.7
	c3.17-4.34,5.46-9.31,8.51-13.74c3.99-5.8,5.36-13.65,12.86-16.52c-0.24-1.7-0.44-3.17-0.64-4.63c1.53,0.38,3.06,0.76,4.59,1.15
	C195.41,53.58,196.15,56.97,196.9,60.35z"/>
<path class="st7" d="M133.53,139.54c2.27,0.38,4.54,0.76,6.8,1.14c0,0.33-0.02,0.66-0.06,0.98c-8.46-0.04-16.92-0.1-25.39-0.11
	c-10.23-0.01-10.9-0.83-8.74-11c1.2-0.75,2.78-1.23,3.52-2.3c3.45-5,6.67-10.16,9.97-15.28c2.34-3.63,4.67-7.28,7.62-11.88
	c-4.77,0-8.27,0-11.78,0c-0.04-0.3-0.03-0.61,0.03-0.91c4.59-0.34,9.21-1.18,13.77-0.92c8.47,0.49,15.94-1.5,22.4-7.04
	c-1.01,2.46-1.63,5.2-3.11,7.33c-4.59,6.58-11.64,12.32-13.73,19.54c-2.22,7.69-7.68,11.52-11.99,16.84
	c-0.71,0.87-2.19,1.11-3.32,1.65c0.41,0.65,0.82,1.29,1.23,1.94C125.01,139.54,129.27,139.54,133.53,139.54z"/>
<path class="st7" d="M162.93,88.65c-0.38,0.75-0.75,1.51-1.13,2.26c-2.95,0.01-5.9,0.03-8.86,0.04c8.3-12.96,7.08-25.04-3.37-36.26
	c0.68,0,1.36-0.01,2.04-0.01c1.66,1.34,3.31,2.69,5.17,4.19c5.8-9.98,11.37-19.44,16.78-29c0.95-1.67,1.19-3.74,1.75-5.63l0.41-0.37
	c9.72,6.32,16.01,15.12,18.94,26.33c-1.53-0.38-3.06-0.76-4.59-1.15c0-1.12,0-2.25,0-3.37c0-0.76,0-1.52,0-2.27
	c-1.14-1.38-2.27-2.76-4.46-5.41c-2.52,5.16-4.36,9.91-7.01,14.14c-4.79,7.64-9.6,15.35-15.3,22.3
	C159.17,79.5,158.32,84.44,162.93,88.65z"/>
<path class="st8" d="M106.06,224.36c14.21-3.51,27.23-9.83,40.26-16.32c8.01-3.99,16.87-6.21,25.11-9.79
	c6.52-2.84,12.67-6.54,19.22-9.98c0.63,1.21,1.7,3.25,2.77,5.3c0,0-0.12,0.19-0.12,0.19c-1.82,2.28-3.64,4.57-5.46,6.85
	c-10.56,4.34-21.12,8.67-31.66,13.05c-1.03,0.43-1.88,1.25-2.9,1.72c-6.52,3.01-13.02,6.1-19.64,8.87
	c-2.13,0.89-4.63,0.89-6.94,1.36c-3.2,0.65-6.73,2.57-9.51,1.79c-5.25-1.49-6.91,0.35-7.37,4.98c-1.2,0.01-2.39,0.02-3.59,0.04
	c0,0,0.02,0.02,0.02,0.02C106.18,229.74,106.12,227.05,106.06,224.36z"/>
<path class="st9" d="M109.81,232.37c0.46-4.62,2.12-6.47,7.37-4.98c2.78,0.79,6.31-1.14,9.51-1.79c2.32-0.47,4.81-0.47,6.94-1.36
	c6.62-2.78,13.12-5.86,19.64-8.87c1.01-0.47,1.87-1.29,2.9-1.72c10.54-4.38,21.1-8.71,31.66-13.05c0.19,0.68,0.37,1.37,0.56,2.05
	c-8.94,13.5-20.82,23.14-36.66,27.3c-4.48,1.18-9.14,1.63-13.72,2.42c-1.54,0.05-3.09,0.1-4.63,0.15
	C125.52,232.48,117.67,232.42,109.81,232.37z"/>
<path class="st10" d="M60.07,97.95c0.65,1.06,1.31,2.12,1.96,3.18c-0.22,0.54-0.45,1.08-0.67,1.61c-2.9-0.92-6.2-1.24-8.6-2.89
	c-4.33-2.96-8.57-4.93-14.01-4.51c-7.53,0.58-15.11,0.6-23.37,0.88c-1.12-1.73-3-4.62-4.87-7.51c-0.06-0.47-0.12-0.95-0.17-1.42
	c-0.28-1.02-0.56-2.04-0.84-3.06c-0.04-0.82-0.08-1.63-0.13-2.45c0.3-0.74,0.6-1.47,0.9-2.21c4.34-0.7,8.69-1.42,13.04-2.07
	c0.49-0.07,1.04,0.45,1.57,0.46c7.48,0.18,14.96,0.32,22.44,0.47c2.6,4.86,5.04,9.81,7.88,14.52
	C56.37,94.91,58.42,96.31,60.07,97.95z"/>
<path class="st11" d="M15.63,46.37c0.93,0.49,2.09,1.61,2.77,1.37c9.83-3.39,19.37-0.39,28.74,1.78c2.19,0.51,3.44,5.07,5.13,7.76
	c-1.37,3.33-2.74,6.65-4.1,9.97c-0.29,0.24-0.5,0.55-0.62,0.91c-0.1,0.4-0.2,0.8-0.3,1.2c-0.64,0.02-1.28,0.05-1.92,0.07
	c-5.17-7.26-12.68-4.07-19.38-4.24c-3.42-0.09-6.85,0.37-10.27,0.58c-0.03-0.48-0.05-0.97-0.08-1.45c-1.77,0.94-3.53,1.89-5.3,2.83
	c-0.06-1.21-0.13-2.42-0.19-3.63c0.04-0.64,0.07-1.28,0.11-1.93c0.07-0.34,0.11-0.69,0.13-1.03C12.11,55.83,13.87,51.1,15.63,46.37z
	"/>
<path class="st12" d="M88.84,223.18c-0.05,2.31-0.1,4.62-0.15,6.92c-0.25,0.19-0.4,0.45-0.44,0.77c0,0-0.2,0.18-0.2,0.18
	c-2.55,0.33-5.09,0.65-7.64,0.98c-18.55,2.15-34.62-3.81-49.01-15.12c-0.84-0.66-1.28-1.82-1.91-2.75
	c-0.37-0.36-0.75-0.72-1.12-1.08c0,0-0.03-0.03-0.03-0.03c-0.12-4.5,2.71-4.06,5.68-3.38c0.89,1.12,1.62,2.99,2.7,3.23
	c6.35,1.39,12.74,2.74,19.19,3.45c8.94,0.99,17.94,1.4,27.22,2.09c-1.11,4.23,0.83,5.39,5,3.7
	C88.36,222.48,88.6,222.83,88.84,223.18z"/>
<path class="st13" d="M75.72,139.62c-15.46,0.53-28.97-4.88-41.36-13.63c-1.3-0.92-2.23-2.37-3.34-3.57
	c5.92,0.07,11.84,0.11,17.76,0.22c0.73,0.01,1.44,0.41,2.17,0.47c12.66,0.98,25.33,1.94,37.99,2.9c0.09,5.25,0.18,10.49,0.27,15.74
	c-1.38,0-2.77-0.01-4.15-0.01c-0.44-0.09-0.87-0.17-1.31-0.26c-0.4-0.25-0.8-0.5-1.2-0.76c-1.12-0.11-2.24-0.23-3.35-0.34
	C78.03,140.13,76.88,139.88,75.72,139.62z"/>
<path class="st7" d="M159.54,174.6c-1.85,2.26-3.7,4.52-5.55,6.78c3.89-7.93,6.74-15.98,2.58-24.73c-1.12-2.35-2.43-4.62-3.65-6.92
	c5.12,3.88,9.25,0.8,13.48-1.87c1.53-0.97,3.08-1.96,4.75-2.61c5.81-2.28,11.75-4.21,17.44-6.74c1.31-0.58,1.78-3.03,2.64-4.62
	c2.48,7.16,4.96,14.31,7.44,21.47c-1.23-1.83-2.46-3.66-3.45-5.14c-4.56,2.55-8.59,5.16-12.91,7.11c-3.71,1.68-7.94,2.24-11.62,3.97
	C165.04,163.95,158.93,166.56,159.54,174.6z"/>
<path class="st14" d="M122.58,49.2c-0.87-0.07-1.75-0.14-2.62-0.21c-0.74-8.89,7.42-13.21,10.54-20.19
	c2.21-4.94,6.81-8.76,9.85-13.41c1.13-1.72,0.84-4.37,1.2-6.6c3.37,0.69,6.73,1.38,10.1,2.06c1.81,0.7,3.61,1.41,5.42,2.12
	c0.42,0.17,0.83,0.34,1.25,0.51c0.8,0.93,1.59,1.86,2.39,2.8c-2.77,0.67-6.55,0.46-8.07,2.22c-2.51,2.89-3.31,7.19-5.27,10.64
	c-4.01,7.05-7.49,14.51-14.04,19.77C129.74,49,126.16,49.1,122.58,49.2z"/>
<path class="st15" d="M34.01,209.67c-2.97-0.69-5.79-1.13-5.68,3.38c-1.22-1.33-2.43-2.67-3.65-4c0.07-0.56,0.17-1.12,0.19-1.68
	c0.43-9.56,0.78-9.43,10.19-8.22c12.85,1.65,25.8,2.54,38.72,3.71c5.01,0.45,10.04,0.79,15.05,1.17c-0.03,2.63-0.06,5.26-0.09,7.89
	c-8.91-0.09-17.86,0.3-26.73-0.41c-8.5-0.68-16.9-2.56-25.38-3.72C35.86,207.68,34.89,209.01,34.01,209.67z"/>
<path class="st16" d="M88.94,126.01c-12.66-0.96-25.33-1.91-37.99-2.9c-0.73-0.06-1.45-0.46-2.17-0.47
	c-5.92-0.1-11.84-0.15-17.76-0.22c-2.01-1.88-4.02-3.75-6.03-5.63c-0.29-0.34-0.58-0.68-0.87-1.03c0,0-0.23-0.29-0.23-0.3
	c0.89-5.14,5.12-4.42,8.28-4.03c15.66,1.91,31.26,4.33,46.91,6.27c3.24,0.4,6.63-0.47,9.95-0.75C89,119.98,88.97,123,88.94,126.01z"
	/>
<path class="st17" d="M141.54,8.79c-0.36,2.23-0.07,4.88-1.2,6.6c-3.04,4.65-7.64,8.47-9.85,13.41
	c-3.12,6.98-11.28,11.31-10.54,20.19c-3.09,0.07-6.17,0.14-9.25,0.22c-1.02,0-2.05,0.01-3.07,0.01c0,0-0.36-0.08-0.36-0.08
	c-0.49-0.78-0.98-1.56-1.48-2.33c0.05-1.15,0.1-2.3,0.15-3.45c5.28,0.82,3.02-3.91,4.41-5.95c4.34-6.38,9.83-12.25,12.77-19.21
	c2.18-5.18,4.06-8.38,9.83-8.34c0.19,0,0.38-0.98,0.57-1.5C136.19,8.5,138.87,8.64,141.54,8.79z"/>
<path class="st18" d="M152.95,90.95c2.95-0.01,5.9-0.03,8.86-0.04c-3.39,8.01-6.08,16.25-12.73,22.63
	c-3.7,3.55-5.52,9.02-9.12,12.71c-3.78,3.89-6.72,7.66-6.43,13.29c-4.26,0-8.52,0-12.78,0c-0.41-0.65-0.82-1.29-1.23-1.94
	c1.13-0.53,2.61-0.77,3.32-1.65c4.31-5.32,9.77-9.14,11.99-16.84c2.09-7.22,9.14-12.96,13.73-19.54c1.49-2.13,2.1-4.87,3.11-7.33
	C152.1,91.81,152.52,91.38,152.95,90.95z"/>
<path class="st19" d="M133.52,8.35c-0.19,0.52-0.38,1.5-0.57,1.5c-5.77-0.04-7.65,3.16-9.83,8.34c-2.94,6.96-8.43,12.83-12.77,19.21
	c-1.39,2.05,0.87,6.78-4.41,5.95c-0.1-5.29-0.21-10.57-0.32-15.86c-0.01-2.21-0.01-4.43-0.02-6.64c0.01-1.16,0.01-2.33,0.02-3.49
	c0.02-0.73,0.03-1.47,0.05-2.2c0.35-7.75,0.35-7.75,7.87-7.49C120.2,7.9,126.86,8.13,133.52,8.35z"/>
<path class="st20" d="M10.3,67.15c1.77-0.94,3.53-1.89,5.3-2.83c0.03,0.48,0.05,0.97,0.08,1.45c3.42-0.21,6.85-0.67,10.27-0.58
	c6.7,0.17,14.21-3.02,19.38,4.24c0.58,1.13,1.17,2.27,1.75,3.4c0.08,1.88,0.16,3.75,0.24,5.63c-7.48-0.15-14.96-0.29-22.44-0.47
	c-0.53-0.01-1.08-0.53-1.57-0.46c-4.35,0.64-8.69,1.37-13.04,2.07c-0.42-2.28-0.84-4.55-1.26-6.83c0-0.72,0-1.44,0.01-2.16
	C9.44,69.45,9.87,68.3,10.3,67.15z M15.75,72.11c-0.38-0.44-0.66-0.78-0.95-1.11c-0.33,0.32-0.86,0.61-0.94,0.99
	c-0.07,0.32,0.37,0.75,0.59,1.14C14.84,72.82,15.22,72.52,15.75,72.11z"/>
<path class="st21" d="M140.27,141.66c0.04-0.33,0.06-0.65,0.06-0.98c3.77-1.13,7.54-2.26,11.3-3.39c7.2-0.78,13.09-4.04,18.4-8.92
	c3.13-2.88,6.94-5.02,10.54-7.34c0.29-0.19,1.34,0.8,2.03,1.24c1.74,2.02,3.49,4.04,5.23,6.07c0,1.65,0,3.31,0,5.11
	c-2.36,0.88-4.96,1.76-7.48,2.81c-5.65,2.36-11.84,3.99-16.7,7.46c-4.22,3.01-8.27,3.77-12.96,3.74
	C147.22,145.53,143.74,143.6,140.27,141.66z"/>
<path class="st22" d="M47,164.28c0.06,1.54,0.13,3.08,0.19,4.62c-0.28,0.01-0.55,0.03-0.83,0.07c-1.28,1.01-2.56,2.88-3.83,2.87
	c-3.1-0.03-6.16-1.1-9.28-1.43c-4.58-0.48-9.19-0.68-14.68-1.06c-1.3-4.1-5.23-0.04-8.29-0.39c-0.31-1.49-0.62-2.97-0.93-4.46
	c0.53-1.95,1.05-3.9,1.57-5.85c0.25-0.23,0.43-0.5,0.54-0.82c0,0,0.09-0.12,0.09-0.12c1.01-1.22,2.03-2.45,3.04-3.67
	c0,0,0.02,0.09,0.02,0.09c0.39-0.4,0.78-0.79,1.17-1.19c0,0-0.04-0.03-0.04-0.03c3.51,0.58,6.61,8.16,10.73-0.48
	c1.3,2.25,2.16,3.74,3.02,5.22c-1.49,0.35-2.99,0.7-5.91,1.39c4.8,1.87,4.8,1.87,5.91-1.39c1.74-0.48,3.45-1.15,5.22-1.38
	c1.24-0.17,2.71-0.07,3.8,0.47c2.52,1.27,4.88,2.88,7.3,4.35c0.16,0.61,0.32,1.22,0.49,1.82C46.52,163.35,46.76,163.82,47,164.28z"
	/>
<path class="st23" d="M10.27,168.95c3.07,0.35,6.99-3.71,8.29,0.39c5.49,0.38,10.1,0.58,14.68,1.06c3.11,0.33,6.18,1.4,9.28,1.43
	c1.27,0.01,2.56-1.86,3.84-2.87c0.6,1.9,1.2,3.8,1.8,5.7c0.15,0.5,0.31,0.99,0.46,1.49c0.08,0.19,0.18,0.36,0.3,0.53
	c0.31,0.82,0.61,1.63,0.92,2.45c-0.04,0.39-0.09,0.77-0.13,1.16c-7.53-0.46-15.54,0.53-22.45-1.79c-6.64-2.23-10.98-0.78-15.73,2.9
	c-0.3-0.04-0.6-0.07-0.9-0.08c-0.18-1.38-0.35-2.77-0.53-4.15c-0.14-0.46-0.27-0.91-0.41-1.37c-0.12-1.92-0.24-3.84-0.36-5.76
	C9.65,169.67,9.96,169.31,10.27,168.95z"/>
<path class="st6" d="M159.54,174.6c-0.61-8.04,5.5-10.65,11.14-13.29c3.68-1.73,7.91-2.29,11.62-3.97
	c4.32-1.96,8.35-4.56,12.91-7.11c0.99,1.48,2.22,3.31,3.45,5.14c0.07,0.77,0.14,1.53,0.22,2.3c-0.31-0.03-0.62-0.04-0.93-0.02
	c-8.64,5.73-17.54,10.78-27.88,12.98C166.45,171.39,163.05,173.24,159.54,174.6z"/>
<path class="st24" d="M34.01,209.67c0.88-0.66,1.85-1.99,2.62-1.88c8.47,1.16,16.88,3.04,25.38,3.72
	c8.86,0.71,17.82,0.32,26.73,0.41c0.03,1.92,0.06,3.84,0.08,5.77c0,0.68-0.01,1.35-0.01,2.03c-0.01,0.77-0.02,1.54-0.03,2.31
	c-0.23,0-0.45,0.04-0.67,0.11c-4.17,1.69-6.11,0.54-5-3.7c-9.29-0.68-18.29-1.1-27.22-2.09c-6.45-0.71-12.84-2.06-19.19-3.45
	C35.63,212.66,34.9,210.79,34.01,209.67z"/>
<path class="st25" d="M160.7,16.27c-0.8-0.93-1.59-1.87-2.39-2.8c4.49,2.26,8.98,4.53,13.47,6.79c0.7,0.59,1.4,1.19,2.1,1.78
	c0,0,0.26,0.21,0.26,0.21c0.03,0.64,0.06,1.29,0.09,1.93c-0.9,0.17-2.24,0.03-2.63,0.57c-3.7,5.1-7.22,10.32-10.84,15.48
	c-2.13,3.03-3.84,6.66-6.68,8.77c-2.35,1.76-2.99,3.18-2.45,5.66c-0.68,0-1.36,0.01-2.04,0.01c-3.92-1.65-7.84-3.3-11.76-4.95
	c0.02-0.19,0.02-0.39,0.02-0.59c8.2,1.85,13.09-1.11,14.25-9.68c0.09-0.63,0.91-1.15,1.35-1.76c3.49-4.76,7.14-9.43,10.41-14.34
	C166.28,19.73,165.58,16.94,160.7,16.27z"/>
<path class="st6" d="M115.47,101.11c3.5,0,7.01,0,11.78,0c-2.95,4.6-5.27,8.24-7.62,11.88c-3.29,5.11-6.52,10.27-9.97,15.28
	c-0.74,1.07-2.32,1.55-3.52,2.3c-0.1-4.54-0.2-9.09-0.3-13.63C111.76,113.31,113.47,107.12,115.47,101.11z"/>
<path class="st6" d="M150.7,147.46c4.69,0.03,8.75-0.73,12.96-3.74c4.86-3.47,11.05-5.11,16.7-7.46c2.53-1.06,5.13-1.93,7.48-2.81
	c0-1.81,0-3.46,0-5.11c0.75,1.18,1.5,2.36,2.24,3.54c0.13,0.35,0.37,0.61,0.69,0.79c0.15,0.41,0.3,0.82,0.45,1.23
	c-0.86,1.59-1.33,4.03-2.64,4.62c-5.69,2.53-11.64,4.47-17.44,6.74c-1.67,0.65-3.23,1.65-4.75,2.61c-4.22,2.67-8.36,5.75-13.48,1.87
	C152.18,148.97,151.44,148.22,150.7,147.46z"/>
<path class="st26" d="M45.8,161.07c-2.42-1.47-4.77-3.08-7.3-4.35c-1.08-0.55-2.56-0.64-3.8-0.47c-1.77,0.24-3.48,0.9-5.22,1.38
	l0,0.01c-0.86-1.48-1.72-2.97-3.02-5.22c-4.12,8.64-7.22,1.06-10.73,0.48c4.48-6.05,11-6.34,17.19-4.78
	C39.37,149.74,44.97,153.33,45.8,161.07z"/>
<path class="st21" d="M115.47,101.11c-2,6.01-3.7,12.2-9.63,15.82c-0.13-2.41-0.36-4.82-0.38-7.23c-0.12-10.26-0.1-10.26,10.04-9.5
	C115.44,100.5,115.43,100.8,115.47,101.11z"/>
<path class="st7" d="M137.75,191.1c-8.64,0.9-17.29,1.7-25.9,2.79c-2.05,0.26-3.98,1.45-5.96,2.22c-0.61-2.66-1.38-5.42,2.93-5.37
	C118.46,190.85,128.11,190.98,137.75,191.1z"/>
<path class="st7" d="M152.72,182.52c-1.15,4.5-4.07,6.76-8.69,6.85C146.93,187.09,149.82,184.8,152.72,182.52z"/>
<path class="st3" d="M188.39,202.66c-0.19-0.68-0.37-1.37-0.56-2.05c1.82-2.28,3.64-4.57,5.46-6.85
	C191.66,196.72,190.03,199.69,188.39,202.66z"/>
<path class="st2" d="M9.01,72.76c0.42,2.28,0.84,4.55,1.26,6.83c-0.3,0.74-0.6,1.47-0.9,2.21C9.25,78.79,9.13,75.77,9.01,72.76z"/>
<path class="st26" d="M137.84,49.15c0,0.2-0.01,0.39-0.02,0.59c-5.09-0.18-10.17-0.36-15.25-0.54c3.59-0.1,7.17-0.2,10.76-0.3
	C134.83,48.98,136.34,49.07,137.84,49.15z"/>
<path class="st26" d="M10.27,168.95c-0.31,0.36-0.62,0.72-0.93,1.08c0-1.85,0-3.7,0-5.55C9.65,165.98,9.96,167.46,10.27,168.95z"/>
<path class="st2" d="M10.3,67.15c-0.43,1.15-0.85,2.3-1.28,3.45c0.36-2.36,0.73-4.72,1.1-7.08C10.17,64.73,10.24,65.94,10.3,67.15z"
	/>
<path class="st26" d="M48.16,174.67c-0.6-1.9-1.2-3.8-1.8-5.7c0.27-0.03,0.55-0.06,0.83-0.06
	C47.51,170.82,47.83,172.74,48.16,174.67z"/>
<path class="st11" d="M55.39,54.3c1.34-1.3,2.69-2.6,4.03-3.9C58.08,51.71,56.73,53.01,55.39,54.3z"/>
<path class="st1" d="M80.4,232.03c2.55-0.33,5.09-0.65,7.64-0.98C85.5,231.38,82.95,231.71,80.4,232.03z"/>
<path class="st25" d="M157.06,12.97c-1.81-0.71-3.61-1.41-5.42-2.12C153.45,11.56,155.25,12.26,157.06,12.97z"/>
<path class="st26" d="M14.58,154.02c-1.01,1.22-2.03,2.45-3.04,3.67C12.56,156.47,13.57,155.25,14.58,154.02z"/>
<path class="st7" d="M197.96,157.64c0.31-0.01,0.62-0.01,0.93,0.02c0.09,1.12,0.19,2.24,0.28,3.37
	C198.77,159.9,198.36,158.77,197.96,157.64z"/>
<path class="st10" d="M47.08,72.83c-0.58-1.13-1.17-2.27-1.75-3.4c0.64-0.02,1.28-0.04,1.92-0.07
	C47.19,70.52,47.14,71.67,47.08,72.83z"/>
<path class="st26" d="M105.61,20.86c0.01,2.21,0.01,4.43,0.02,6.64C105.62,25.28,105.62,23.07,105.61,20.86z"/>
<path class="st2" d="M85.05,141.74c1.38,0,2.77,0.01,4.15,0.01C88.22,144.35,88.1,144.35,85.05,141.74z"/>
<path class="st7" d="M196.86,182.43c0.51-0.74,1.02-1.49,1.52-2.23C197.87,180.94,197.36,181.68,196.86,182.43z"/>
<path class="st11" d="M17.1,42.29c-0.37,0.75-0.75,1.51-1.12,2.26C16.36,43.8,16.73,43.05,17.1,42.29z"/>
<path class="st26" d="M105.8,46.8c0.49,0.78,0.99,1.56,1.48,2.33C106.78,48.36,106.29,47.58,105.8,46.8z"/>
<path class="st7" d="M133.37,232.53c1.54-0.05,3.09-0.1,4.63-0.15C136.46,232.43,134.92,232.48,133.37,232.53z"/>
<path class="st7" d="M173.88,22.04c-0.7-0.6-1.4-1.19-2.1-1.78C172.48,20.86,173.18,21.45,173.88,22.04z"/>
<path class="st4" d="M87.8,9.62c-1.28-0.26-2.57-0.52-3.85-0.78C85.23,9.1,86.51,9.36,87.8,9.62z"/>
<path class="st2" d="M9.49,84.25c0.28,1.02,0.56,2.04,0.84,3.06C10.05,86.29,9.77,85.27,9.49,84.25z"/>
<path class="st2" d="M75.72,139.62c1.16,0.25,2.32,0.51,3.47,0.76C78.03,140.13,76.88,139.88,75.72,139.62z"/>
<path class="st26" d="M107.63,49.22c1.02,0,2.05-0.01,3.07-0.01C109.68,49.21,108.66,49.21,107.63,49.22z"/>
<path class="st26" d="M10.63,181.31c0.3,0.01,0.6,0.04,0.9,0.08c-0.06,0.77-0.11,1.53-0.17,2.3
	C11.12,182.9,10.87,182.11,10.63,181.31z"/>
<path class="st26" d="M11.89,185.92c0.25,0.68,0.5,1.37,0.75,2.05C12.38,187.29,12.13,186.6,11.89,185.92z"/>
<path class="st26" d="M47,164.28c-0.24-0.46-0.48-0.93-0.71-1.39C46.52,163.36,46.76,163.82,47,164.28z"/>
<path class="st7" d="M174.23,24.19c-0.03-0.64-0.06-1.29-0.09-1.93c0.53,0.54,1.06,1.08,1.59,1.62c0,0-0.41,0.37-0.41,0.37
	C174.96,24.21,174.59,24.19,174.23,24.19z"/>
<path class="st26" d="M105.68,15.16c-0.02,0.73-0.03,1.47-0.05,2.2C105.65,16.63,105.66,15.9,105.68,15.16z"/>
<path class="st1" d="M88.81,219.72c0-0.68,0.01-1.35,0.01-2.03C88.82,218.37,88.81,219.04,88.81,219.72z"/>
<path class="st15" d="M28.36,213.08c0.37,0.36,0.75,0.72,1.12,1.08C29.11,213.8,28.73,213.44,28.36,213.08z"/>
<path class="st1" d="M88.12,222.14c0.22-0.07,0.44-0.1,0.67-0.11c0.02,0.38,0.04,0.77,0.05,1.15
	C88.6,222.83,88.36,222.48,88.12,222.14z"/>
<path class="st1" d="M88.24,230.87c0.04-0.32,0.18-0.57,0.44-0.77C88.53,230.36,88.39,230.62,88.24,230.87z"/>
<path class="st2" d="M82.55,140.72c0.4,0.25,0.8,0.51,1.2,0.76C83.34,141.22,82.95,140.97,82.55,140.72z"/>
<path class="st7" d="M190.78,132.66c-0.33-0.18-0.56-0.44-0.69-0.79C190.32,132.14,190.55,132.4,190.78,132.66z"/>
<path class="st2" d="M24.12,115.78c0.29,0.34,0.58,0.68,0.87,1.03C24.7,116.46,24.41,116.12,24.12,115.78z"/>
<path class="st26" d="M49.7,180.29c0.04-0.39,0.09-0.77,0.13-1.16c0.24,0.43,0.49,0.86,0.73,1.28
	C50.28,180.4,49.99,180.35,49.7,180.29z"/>
<path class="st26" d="M51.28,181.36c-0.19-0.14-0.33-0.32-0.43-0.53c0,0,0.48,0.07,0.48,0.07L51.28,181.36z"/>
<path class="st26" d="M53.78,184.82c-0.29-0.14-0.51-0.36-0.65-0.65C53.35,184.38,53.56,184.6,53.78,184.82z"/>
<path class="st7" d="M141.24,190.02c-0.2,0.21-0.43,0.35-0.71,0.41c0,0,0.23-0.47,0.23-0.47L141.24,190.02z"/>
<path class="st26" d="M11.45,157.82c-0.11,0.32-0.29,0.6-0.54,0.82C11.09,158.37,11.27,158.09,11.45,157.82z"/>
<path class="st4" d="M89.01,18.46c-0.09-0.23-0.21-0.45-0.26-0.68c-0.02-0.08,0.16-0.2,0.24-0.3C89.19,17.8,89.19,18.13,89.01,18.46
	z"/>
<polygon class="st7" points="106.24,232.43 106.22,232.41 106.11,232.53 "/>
<path class="st10" d="M47.55,68.16c0.12-0.37,0.32-0.67,0.62-0.91C47.96,67.55,47.75,67.86,47.55,68.16z"/>
<path class="st26" d="M57.63,188.21c-0.34-0.29-0.69-0.58-1.03-0.87C56.94,187.63,57.28,187.92,57.63,188.21z"/>
<path class="st2" d="M10.35,60.56c-0.02,0.35-0.06,0.69-0.13,1.03c-0.11-0.27-0.23-0.54-0.3-0.82C9.91,60.74,10.2,60.63,10.35,60.56
	z"/>
<path class="st15" d="M21.65,206.25c0.35,0.39,0.7,0.78,1.04,1.17C22.34,207.03,22,206.64,21.65,206.25z"/>
<path class="st26" d="M9.7,175.79c0.14,0.46,0.27,0.91,0.41,1.37C9.97,176.71,9.83,176.25,9.7,175.79z"/>
<path class="st26" d="M15.77,152.92c-0.39,0.4-0.78,0.79-1.17,1.19C14.99,153.71,15.38,153.32,15.77,152.92z"/>
<path class="st26" d="M48.92,176.68c-0.12-0.17-0.22-0.35-0.3-0.53c0,0,0.43,0.14,0.43,0.14L48.92,176.68z"/>
<path class="st5" d="M29.33,27.37c0.74,1.07,2.32,2.77,2.07,3.09c-1.27,1.66-3,2.97-4.57,4.4c-0.4-0.41-0.81-0.82-1.21-1.23
	c1.24-2.07,2.47-4.15,3.71-6.22C29.33,27.4,29.33,27.37,29.33,27.37z"/>
<path class="st18" d="M190.08,45.68c0,1.12,0,2.25,0,3.37c0.2,1.47,0.41,2.93,0.64,4.63c-7.5,2.87-8.87,10.72-12.86,16.52
	c-3.05,4.44-5.34,9.4-8.51,13.74c-1.49,2.04-4.24,3.16-6.43,4.7c-4.61-4.21-3.76-9.15,0.38-14.21c5.69-6.95,10.51-14.66,15.3-22.3
	c2.66-4.23,4.49-8.98,7.01-14.14c2.18,2.65,3.32,4.03,4.46,5.41C190.08,44.17,190.08,44.93,190.08,45.68z"/>
<path class="st6" d="M174.23,24.19c0.37,0.01,0.73,0.03,1.09,0.06c-0.57,1.89-0.81,3.96-1.75,5.63c-5.4,9.56-10.98,19.02-16.78,29
	c-1.86-1.51-3.51-2.85-5.17-4.19c-0.53-2.49,0.1-3.91,2.45-5.67c2.83-2.12,4.55-5.75,6.68-8.77c3.62-5.16,7.14-10.38,10.84-15.48
	C171.98,24.22,173.32,24.36,174.23,24.19z"/>
<path class="st6" d="M190.08,45.68c0-0.76,0-1.52,0-2.27C190.08,44.17,190.08,44.93,190.08,45.68z"/>
<path class="st21" d="M137.84,49.15c-1.5-0.08-3.01-0.17-4.51-0.26c6.55-5.26,10.03-12.72,14.04-19.77
	c1.96-3.45,2.76-7.75,5.27-10.64c1.52-1.75,5.3-1.54,8.07-2.22c4.88,0.67,5.58,3.46,3.15,7.11c-3.27,4.91-6.92,9.57-10.41,14.34
	c-0.44,0.6-1.27,1.12-1.35,1.76C150.94,48.04,146.05,51.01,137.84,49.15z"/>
<path class="st10" d="M15.75,72.11c-0.53,0.42-0.91,0.71-1.29,1.01c-0.22-0.38-0.66-0.81-0.59-1.14c0.08-0.38,0.61-0.66,0.94-0.99
	C15.09,71.33,15.37,71.67,15.75,72.11z"/>
<path class="st26" d="M29.49,157.63c-1.11,3.26-1.11,3.26-5.91,1.39C26.5,158.34,28,157.99,29.49,157.63
	C29.49,157.64,29.49,157.63,29.49,157.63z"/>
</svg>
